<?xml version="1.0" standalone="no"?>
<!DOCTYPE svg PUBLIC "-//W3C//DTD SVG 20010904//EN"
 "http://www.w3.org/TR/2001/REC-SVG-20010904/DTD/svg10.dtd">
<svg version="1.0" xmlns="http://www.w3.org/2000/svg"
 width="2048.000000pt" height="1536.000000pt" viewBox="0 0 2048.000000 1536.000000"
 preserveAspectRatio="xMidYMid meet">

<g transform="translate(0.000000,1536.000000) scale(0.100000,-0.100000)"
fill="#000000" stroke="none">
<path d="M4595 9525 c-353 -77 -598 -452 -704 -1077 -50 -291 -66 -521 -86
-1228 -9 -300 -22 -667 -29 -817 l-13 -272 -47 -58 c-210 -256 -493 -546 -654
-670 -123 -96 -191 -136 -318 -188 -152 -63 -205 -109 -238 -208 -61 -183 67
-370 264 -385 54 -4 81 1 157 26 218 74 436 214 698 449 l100 90 -3 -515 c-4
-647 -1 -667 108 -765 145 -131 367 -88 458 88 24 48 26 62 38 315 19 396 43
583 120 922 78 346 156 582 230 693 95 145 187 215 355 272 117 40 218 46 311
19 147 -42 178 -197 128 -631 -11 -99 -28 -245 -37 -325 -25 -212 -25 -672 0
-795 60 -302 202 -514 412 -615 101 -49 180 -64 298 -58 265 14 508 185 700
490 l53 85 37 -64 c48 -80 143 -182 223 -239 198 -141 400 -170 638 -90 61 20
139 52 175 72 46 24 67 30 70 22 9 -31 110 -116 156 -131 53 -18 150 -22 188
-8 16 6 39 4 78 -9 130 -44 379 -55 563 -25 353 57 890 249 1219 436 116 67
317 194 399 254 l63 46 12 -90 c23 -175 86 -312 185 -407 67 -64 101 -88 166
-113 129 -51 279 -47 459 10 211 68 308 131 359 235 24 49 26 63 22 137 -6
119 -52 193 -152 245 -44 23 -63 27 -136 26 -77 0 -95 -4 -187 -42 -55 -23
-106 -42 -111 -42 -18 0 -24 121 -12 255 25 297 86 628 152 823 38 115 42 136
43 227 0 84 -3 106 -22 141 -71 133 -199 194 -334 160 -147 -38 -202 -113
-275 -371 -46 -162 -158 -346 -317 -519 -82 -90 -205 -202 -212 -194 -3 2 9
45 25 94 129 378 95 731 -95 999 -88 125 -254 259 -407 329 -121 57 -221 85
-389 111 l-37 5 14 73 c43 223 122 837 144 1116 15 199 13 520 -5 658 -30 232
-101 477 -191 660 -138 280 -364 401 -632 338 -393 -93 -625 -553 -703 -1390
-14 -151 -15 -364 -9 -1865 3 -675 1 -921 -8 -1000 -49 -413 -44 -385 -80
-429 -102 -127 -327 -281 -410 -281 -46 0 -90 34 -124 97 -65 119 -85 267
-103 772 -25 690 -40 785 -142 883 -145 140 -385 95 -475 -91 -20 -42 -23 -68
-30 -276 -5 -126 -15 -279 -22 -340 -59 -462 -297 -1031 -483 -1154 -60 -40
-86 -40 -111 2 -82 133 -88 405 -21 982 64 553 49 772 -72 1006 -104 200 -275
330 -515 391 -122 31 -380 32 -491 1 -40 -11 -73 -18 -73 -16 0 2 22 47 49
101 235 469 385 1131 385 1697 0 243 -10 334 -56 475 -109 339 -389 530 -683
465z m121 -667 c11 -37 18 -105 21 -223 13 -423 -101 -985 -284 -1400 -36 -83
-49 -104 -51 -85 -7 45 18 663 34 840 25 291 65 514 124 688 39 112 106 232
131 232 5 0 16 -24 25 -52z m4229 -170 c57 -196 68 -285 68 -528 -1 -341 -70
-942 -164 -1436 l-31 -161 -74 -38 c-41 -21 -76 -36 -79 -33 -2 2 -7 308 -11
679 -7 709 -3 839 37 1111 33 230 97 456 160 562 l22 38 19 -36 c10 -20 34
-91 53 -158z m559 -2655 c90 -22 193 -78 252 -138 44 -44 56 -64 75 -125 18
-61 21 -87 16 -164 -11 -174 -105 -414 -225 -572 -113 -150 -296 -300 -472
-389 -144 -73 -367 -135 -482 -135 l-51 0 5 74 c5 70 8 78 55 143 73 98 152
223 218 341 110 200 273 576 357 827 28 83 52 153 55 157 5 10 127 -1 197 -19z"/>
<path d="M6897 7126 c-137 -51 -219 -194 -188 -330 61 -272 420 -318 542 -71
29 60 31 70 27 144 -4 61 -10 88 -31 123 -29 50 -80 98 -130 125 -43 22 -170
28 -220 9z"/>
<path d="M11059 7067 c-212 -109 -207 -408 8 -514 138 -67 314 -7 385 132 29
56 35 158 14 223 -22 65 -83 134 -148 166 -41 21 -67 26 -124 26 -62 0 -81 -5
-135 -33z"/>
</g>
</svg>
