<svg width="38" height="36" viewBox="0 0 38 36" fill="none" xmlns="http://www.w3.org/2000/svg">
<path d="M27.7048 0C25.9226 0.0298889 24.1793 0.566302 22.6509 1.55507C21.1225 2.54383 19.8631 3.94994 19 5.63139C18.1369 3.94994 16.8775 2.54383 15.3491 1.55507C13.8207 0.566302 12.0774 0.0298889 10.2952 0C7.45415 0.13309 4.77744 1.47313 2.84984 3.72735C0.922237 5.98158 -0.0995664 8.96676 0.00766199 12.0307C0.00766199 19.7901 7.58244 28.2645 13.9354 34.0102C15.3538 35.2954 17.1472 36 19 36C20.8528 36 22.6462 35.2954 24.0646 34.0102C30.4176 28.2645 37.9923 19.7901 37.9923 12.0307C38.0996 8.96676 37.0778 5.98158 35.1502 3.72735C33.2226 1.47313 30.5459 0.13309 27.7048 0Z" fill="#8BD2F1"/>
</svg>
