<svg width="39" height="39" viewBox="0 0 39 39" fill="none" xmlns="http://www.w3.org/2000/svg">
<circle cx="19.5" cy="19.5" r="19" fill="#FFE4E4" stroke="white"/>
<path d="M24.0833 15.3333H23.787L22.513 13.6813C22.3488 13.4701 22.1387 13.2989 21.8986 13.1809C21.6584 13.0628 21.3946 13.001 21.127 13H18.873C18.6054 13.001 18.3416 13.0628 18.1014 13.1809C17.8613 13.2989 17.6512 13.4701 17.487 13.6813L16.213 15.3333H15.9167C15.1434 15.3343 14.4021 15.6418 13.8553 16.1886C13.3085 16.7354 13.0009 17.4767 13 18.25V24.0833C13.0009 24.8566 13.3085 25.5979 13.8553 26.1447C14.4021 26.6915 15.1434 26.9991 15.9167 27H24.0833C24.8566 26.9991 25.5979 26.6915 26.1447 26.1447C26.6915 25.5979 26.9991 24.8566 27 24.0833V18.25C26.9991 17.4767 26.6915 16.7354 26.1447 16.1886C25.5979 15.6418 24.8566 15.3343 24.0833 15.3333ZM18.411 14.3942C18.4656 14.3236 18.5357 14.2665 18.6157 14.227C18.6958 14.1876 18.7838 14.167 18.873 14.1667H21.127C21.2162 14.1671 21.3042 14.1877 21.3842 14.2271C21.4643 14.2666 21.5343 14.3237 21.589 14.3942L22.3135 15.3333H17.6865L18.411 14.3942ZM25.8333 24.0833C25.8333 24.5475 25.649 24.9926 25.3208 25.3208C24.9926 25.649 24.5475 25.8333 24.0833 25.8333H15.9167C15.4525 25.8333 15.0074 25.649 14.6792 25.3208C14.351 24.9926 14.1667 24.5475 14.1667 24.0833V18.25C14.1667 17.7859 14.351 17.3408 14.6792 17.0126C15.0074 16.6844 15.4525 16.5 15.9167 16.5H24.0833C24.5475 16.5 24.9926 16.6844 25.3208 17.0126C25.649 17.3408 25.8333 17.7859 25.8333 18.25V24.0833Z" fill="black"/>
<path d="M20 17.6667C19.3078 17.6667 18.6311 17.8719 18.0555 18.2565C17.4799 18.6411 17.0313 19.1877 16.7664 19.8273C16.5015 20.4668 16.4322 21.1705 16.5673 21.8495C16.7023 22.5284 17.0356 23.152 17.5251 23.6415C18.0146 24.131 18.6383 24.4644 19.3172 24.5994C19.9961 24.7345 20.6999 24.6651 21.3394 24.4002C21.9789 24.1353 22.5256 23.6867 22.9101 23.1112C23.2947 22.5356 23.5 21.8589 23.5 21.1667C23.4991 20.2387 23.13 19.349 22.4739 18.6928C21.8177 18.0366 20.928 17.6676 20 17.6667ZM20 23.5C19.5385 23.5 19.0874 23.3631 18.7037 23.1068C18.32 22.8504 18.0209 22.4859 17.8443 22.0596C17.6677 21.6332 17.6215 21.1641 17.7115 20.7114C17.8015 20.2588 18.0238 19.8431 18.3501 19.5167C18.6764 19.1904 19.0922 18.9682 19.5448 18.8782C19.9974 18.7881 20.4666 18.8343 20.8929 19.0109C21.3193 19.1875 21.6837 19.4866 21.9401 19.8703C22.1965 20.254 22.3333 20.7052 22.3333 21.1667C22.3333 21.7855 22.0875 22.379 21.6499 22.8166C21.2123 23.2542 20.6188 23.5 20 23.5Z" fill="black"/>
</svg>
