<svg width="33" height="38" viewBox="0 0 33 38" fill="none" xmlns="http://www.w3.org/2000/svg">
<path d="M16.5 12C15.4122 12 14.3488 12.3812 13.4444 13.0954C12.5399 13.8097 11.8349 14.8248 11.4187 16.0126C11.0024 17.2003 10.8935 18.5072 11.1057 19.7681C11.3179 21.029 11.8417 22.1872 12.6109 23.0962C13.3801 24.0052 14.3601 24.6243 15.427 24.8751C16.4939 25.1259 17.5998 24.9972 18.6048 24.5052C19.6098 24.0132 20.4687 23.1801 21.0731 22.1112C21.6774 21.0423 22 19.7856 22 18.5C22 16.7761 21.4205 15.1228 20.3891 13.9038C19.3576 12.6848 17.9587 12 16.5 12ZM16.5 21.75C15.9561 21.75 15.4244 21.5594 14.9722 21.2023C14.5199 20.8452 14.1675 20.3376 13.9593 19.7437C13.7512 19.1499 13.6967 18.4964 13.8028 17.866C13.909 17.2355 14.1709 16.6564 14.5555 16.2019C14.9401 15.7474 15.4301 15.4378 15.9635 15.3124C16.497 15.187 17.0499 15.2514 17.5524 15.4974C18.0549 15.7434 18.4844 16.1599 18.7865 16.6944C19.0887 17.2289 19.25 17.8572 19.25 18.5C19.25 19.362 18.9603 20.1886 18.4445 20.7981C17.9288 21.4076 17.2293 21.75 16.5 21.75Z" fill="black"/>
<path d="M30.7035 22.0083L30.025 21.603C30.3305 19.881 30.3305 18.1158 30.025 16.3938L30.7035 15.9885C31.2253 15.6766 31.6827 15.2613 32.0496 14.7663C32.4165 14.2712 32.6857 13.7062 32.8418 13.1034C32.9979 12.5006 33.0378 11.8718 32.9594 11.253C32.881 10.6342 32.6857 10.0374 32.3846 9.49683C32.0836 8.95623 31.6827 8.48234 31.2049 8.10224C30.7271 7.72214 30.1817 7.44326 29.5999 7.28153C29.018 7.1198 28.4111 7.07839 27.8139 7.15966C27.2166 7.24092 26.6406 7.44328 26.1188 7.75517L25.4387 8.16208C24.1543 7.02512 22.6782 6.14373 21.0847 5.56225V4.75C21.0847 3.49022 20.6017 2.28204 19.7419 1.39124C18.8821 0.500445 17.716 0 16.5 0C15.284 0 14.1179 0.500445 13.2581 1.39124C12.3983 2.28204 11.9153 3.49022 11.9153 4.75V5.56225C10.3219 6.14581 8.8463 7.02937 7.5628 8.16842L6.87968 7.75833C5.82585 7.12844 4.57367 6.95807 3.3986 7.2847C2.22354 7.61132 1.22183 8.40819 0.613857 9.5C0.00588236 10.5918 -0.158562 11.8891 0.1567 13.1065C0.471963 14.324 1.24111 15.3618 2.29493 15.9917L2.97347 16.397C2.66799 18.119 2.66799 19.8842 2.97347 21.6062L2.29493 22.0115C1.24111 22.6414 0.471963 23.6792 0.1567 24.8966C-0.158562 26.114 0.00588236 27.4114 0.613857 28.5032C1.22183 29.595 2.22354 30.3918 3.3986 30.7185C4.57367 31.0451 5.82585 30.8747 6.87968 30.2448L7.55975 29.8379C8.84464 30.975 10.3213 31.8565 11.9153 32.4378V33.25C11.9153 34.5098 12.3983 35.718 13.2581 36.6088C14.1179 37.4996 15.284 38 16.5 38C17.716 38 18.8821 37.4996 19.7419 36.6088C20.6017 35.718 21.0847 34.5098 21.0847 33.25V32.4378C22.6781 31.8542 24.1537 30.9706 25.4372 29.8316L26.1203 30.2401C27.1741 30.87 28.4263 31.0403 29.6014 30.7137C30.7765 30.3871 31.7782 29.5902 32.3861 28.4984C32.9941 27.4066 33.1586 26.1093 32.8433 24.8919C32.528 23.6744 31.7589 22.6366 30.7051 22.0068L30.7035 22.0083ZM26.8096 16.0297C27.3271 17.9725 27.3271 20.0243 26.8096 21.9672C26.7192 22.3053 26.7398 22.665 26.8682 22.9897C26.9965 23.3144 27.2253 23.5857 27.5187 23.7611L29.1753 24.7523C29.5265 24.9622 29.7828 25.3081 29.8879 25.7139C29.9929 26.1196 29.9381 26.552 29.7354 26.9159C29.5327 27.2797 29.1989 27.5453 28.8072 27.6541C28.4156 27.7629 27.9983 27.7061 27.647 27.4962L25.9874 26.5018C25.6938 26.3257 25.352 26.2557 25.0158 26.303C24.6796 26.3503 24.3681 26.5122 24.1305 26.7631C22.7703 28.2018 21.0566 29.2283 19.1744 29.7318C18.8459 29.8193 18.5548 30.0176 18.347 30.2954C18.1392 30.5731 18.0266 30.9146 18.0267 31.2661V33.25C18.0267 33.6699 17.8657 34.0727 17.5791 34.3696C17.2925 34.6665 16.9038 34.8333 16.4985 34.8333C16.0932 34.8333 15.7044 34.6665 15.4178 34.3696C15.1312 34.0727 14.9702 33.6699 14.9702 33.25V31.2677C14.9704 30.9162 14.8577 30.5747 14.6499 30.297C14.4421 30.0192 14.151 29.8209 13.8225 29.7334C11.9402 29.2278 10.227 28.1991 8.86793 26.7583C8.63032 26.5074 8.31888 26.3456 7.9827 26.2983C7.64651 26.251 7.30469 26.3209 7.01111 26.4971L5.35448 27.4898C5.18061 27.5954 4.9883 27.6644 4.78861 27.6927C4.58892 27.7209 4.38581 27.708 4.19096 27.6547C3.99611 27.6013 3.81337 27.5085 3.65327 27.3817C3.49317 27.2548 3.35886 27.0964 3.25809 26.9156C3.15731 26.7348 3.09206 26.5351 3.06608 26.328C3.0401 26.1209 3.05391 25.9106 3.10672 25.7091C3.15953 25.5076 3.25029 25.3189 3.37377 25.1538C3.49726 24.9888 3.65103 24.8507 3.82624 24.7475L5.48286 23.7563C5.7762 23.581 6.00502 23.3097 6.13337 22.9849C6.26172 22.6602 6.28233 22.3006 6.19196 21.9624C5.67443 20.0196 5.67443 17.9678 6.19196 16.0249C6.2807 15.6875 6.25911 15.3291 6.13055 15.0057C6.00199 14.6823 5.77371 14.4121 5.48133 14.2373L3.82471 13.2462C3.4735 13.0362 3.21718 12.6903 3.11214 12.2845C3.0071 11.8788 3.06195 11.4464 3.2646 11.0825C3.46726 10.7187 3.80114 10.4531 4.19278 10.3443C4.58442 10.2355 5.00175 10.2923 5.35296 10.5022L7.01263 11.4966C7.30541 11.6731 7.64652 11.7439 7.98235 11.6978C8.31818 11.6516 8.62969 11.4912 8.86793 11.2417C10.2282 9.80296 11.9419 8.77645 13.824 8.27292C14.1536 8.18514 14.4454 7.98594 14.6533 7.70688C14.8612 7.42781 14.9733 7.08485 14.9718 6.73233V4.75C14.9718 4.33007 15.1328 3.92735 15.4194 3.63041C15.706 3.33348 16.0947 3.16667 16.5 3.16667C16.9053 3.16667 17.294 3.33348 17.5806 3.63041C17.8672 3.92735 18.0282 4.33007 18.0282 4.75V6.73233C18.0281 7.08377 18.1408 7.42527 18.3486 7.70304C18.5564 7.98082 18.8474 8.17908 19.176 8.26658C21.0588 8.77191 22.7725 9.80065 24.1321 11.2417C24.3697 11.4926 24.6811 11.6544 25.0173 11.7017C25.3535 11.749 25.6953 11.6791 25.9889 11.5029L27.6455 10.5102C27.8194 10.4046 28.0117 10.3356 28.2114 10.3073C28.4111 10.2791 28.6142 10.292 28.809 10.3453C29.0039 10.3987 29.1866 10.4915 29.3467 10.6183C29.5068 10.7452 29.6411 10.9036 29.7419 11.0844C29.8427 11.2652 29.9079 11.4649 29.9339 11.672C29.9599 11.8791 29.9461 12.0894 29.8933 12.2909C29.8405 12.4924 29.7497 12.6811 29.6262 12.8462C29.5027 13.0112 29.349 13.1493 29.1738 13.2525L27.5171 14.2437C27.2253 14.419 26.9977 14.6893 26.8697 15.0127C26.7417 15.336 26.7206 15.6942 26.8096 16.0312V16.0297Z" fill="black"/>
</svg>
