<svg width="64" height="64" viewBox="0 0 64 64" fill="none" xmlns="http://www.w3.org/2000/svg">
<g clip-path="url(#clip0_356_536)">
<path d="M14.9107 15.7078L19.1742 11.3044C19.6978 10.7667 20.3235 10.339 21.0145 10.0463C21.7056 9.75369 22.4482 9.60198 23.1987 9.6001H32C34.1508 9.60281 36.2349 10.3469 37.901 11.707C39.5672 13.0671 40.7134 14.9601 41.1467 17.0668H41.3334C43.8078 17.0697 46.18 18.054 47.9297 19.8037C49.6794 21.5534 50.6637 23.9257 50.6667 26.4001V45.0668C50.6637 47.5412 49.6794 49.9135 47.9297 51.6632C46.18 53.4129 43.8078 54.3971 41.3334 54.4001H30.1334C27.6589 54.3971 25.2867 53.4129 23.537 51.6632C21.7873 49.9135 20.803 47.5412 20.8 45.0668V44.8801C18.6933 44.4468 16.8004 43.3006 15.4403 41.6344C14.0802 39.9683 13.3361 37.8842 13.3334 35.7334V19.6054C13.3305 18.1502 13.8966 16.7515 14.9107 15.7078ZM30.1334 50.6668H41.3334C42.8186 50.6668 44.2429 50.0768 45.2932 49.0266C46.3434 47.9764 46.9334 46.552 46.9334 45.0668V26.4001C46.9334 24.9149 46.3434 23.4905 45.2932 22.4403C44.2429 21.3901 42.8186 20.8001 41.3334 20.8001V35.7334C41.3304 38.2079 40.3461 40.5801 38.5964 42.3298C36.8467 44.0795 34.4745 45.0638 32 45.0668H24.5334C24.5334 46.552 25.1234 47.9764 26.1736 49.0266C27.2238 50.0768 28.6481 50.6668 30.1334 50.6668ZM22.6667 41.3334H32C33.4852 41.3334 34.9096 40.7434 35.9598 39.6932C37.01 38.643 37.6 37.2186 37.6 35.7334V18.9334C37.6 17.4482 37.01 16.0238 35.9598 14.9736C34.9096 13.9234 33.4852 13.3334 32 13.3334H24.5334V17.0668C24.5334 18.0569 24.14 19.0065 23.4399 19.7066C22.7397 20.4068 21.7902 20.8001 20.8 20.8001H17.0667V35.7334C17.0667 37.2186 17.6567 38.643 18.7069 39.6932C19.7571 40.7434 21.1815 41.3334 22.6667 41.3334Z" fill="white"/>
</g>
<defs>
<clipPath id="clip0_356_536">
<rect width="44.8" height="44.8" fill="white" transform="matrix(-1 0 0 1 54.4 9.6001)"/>
</clipPath>
</defs>
</svg>
